<svg xmlns="http://www.w3.org/2000/svg" viewBox="0 0 563.16 234.79"><defs><style>.a{font-size:36.71px;fill:#425066;font-family:Roboto-Regular, Roboto;letter-spacing:0.01em;}.b{letter-spacing:-0.01em;}.c{fill:#ff6f00;}</style></defs><text class="a" transform="translate(63.36 80.63)">SIG<tspan class="b" x="58.42" y="0"> </tspan><tspan x="67.02" y="0">TFX</tspan></text><path class="c" d="M113.54,117.75H93.81v54.39H82.91V117.75H63.36v-8.87h50.18Z"/><path class="c" d="M126.63,173q-10,0-16.27-6.32t-6.24-16.84v-1.3A28.22,28.22,0,0,1,106.84,136a20.64,20.64,0,0,1,7.62-8.62,20.12,20.12,0,0,1,11-3.09q9.6,0,14.84,6.13t5.23,17.33V152H114.77a14.09,14.09,0,0,0,3.88,9.21,11.69,11.69,0,0,0,8.58,3.39,14.29,14.29,0,0,0,11.82-5.86l5.69,5.43a19,19,0,0,1-7.53,6.54A23.75,23.75,0,0,1,126.63,173Zm-1.26-40.28a8.89,8.89,0,0,0-7,3.05,15.72,15.72,0,0,0-3.41,8.47h20.12v-.78q-.36-5.31-2.83-8A8.82,8.82,0,0,0,125.37,132.73Z"/><path class="c" d="M163.47,125.13l.3,5.43a16.91,16.91,0,0,1,13.69-6.3q14.68,0,14.94,16.82v31.06H181.85V141.68q0-4.47-1.94-6.62c-1.29-1.43-3.39-2.15-6.32-2.15a10.15,10.15,0,0,0-9.51,5.78v33.45H153.52v-47Z"/><path class="c" d="M226.66,159.37a4.77,4.77,0,0,0-2.32-4.3,24.48,24.48,0,0,0-7.72-2.61,39.5,39.5,0,0,1-9-2.87q-7.9-3.83-7.91-11.08a12.5,12.5,0,0,1,5.13-10.16q5.13-4.09,13-4.09,8.43,0,13.62,4.17a13.22,13.22,0,0,1,5.2,10.82H226.14a6.49,6.49,0,0,0-2.26-5.06,8.65,8.65,0,0,0-6-2,9.4,9.4,0,0,0-5.67,1.61,5.06,5.06,0,0,0-2.19,4.3,4.29,4.29,0,0,0,2,3.78c1.36.9,4.12,1.8,8.26,2.71a39.37,39.37,0,0,1,9.75,3.26,13.93,13.93,0,0,1,5.26,4.54A11.62,11.62,0,0,1,237,158.8a12.26,12.26,0,0,1-5.25,10.28Q226.53,173,218,173a24.28,24.28,0,0,1-10.29-2.09,17,17,0,0,1-7-5.73,13.56,13.56,0,0,1-2.52-7.86h10.25a7.43,7.43,0,0,0,2.83,5.75,10.94,10.94,0,0,0,6.91,2,10.72,10.72,0,0,0,6.34-1.58A4.91,4.91,0,0,0,226.66,159.37Z"/><path class="c" d="M242.48,148.2a27.83,27.83,0,0,1,2.73-12.45,20,20,0,0,1,7.69-8.51,21.65,21.65,0,0,1,11.39-3q9.51,0,15.44,6.13t6.41,16.25l0,2.47a28,28,0,0,1-2.67,12.43,19.77,19.77,0,0,1-7.64,8.47,21.84,21.84,0,0,1-11.5,3q-9.94,0-15.92-6.63t-6-17.66Zm10.55.91q0,7.26,3,11.37a9.76,9.76,0,0,0,8.34,4.1,9.63,9.63,0,0,0,8.32-4.17q3-4.17,3-12.21,0-7.12-3.06-11.29a10.31,10.31,0,0,0-16.53-.07Q253,141,253,149.11Z"/><path class="c" d="M318,134.78a26.39,26.39,0,0,0-4.31-.35q-7.25,0-9.77,5.56v32.15H293.31v-47h10.08l.26,5.26q3.83-6.13,10.6-6.13a10,10,0,0,1,3.74.61Z"/><path class="c" d="M362.09,145.33H336.63v26.81h-11V108.88h40.18v8.87H336.63v18.81h25.46Z"/><path class="c" d="M382.94,172.14H372.39v-63.4h10.55Z"/><path class="c" d="M390.68,148.2a27.7,27.7,0,0,1,2.74-12.45,19.89,19.89,0,0,1,7.69-8.51,21.59,21.59,0,0,1,11.38-3q9.51,0,15.44,6.13t6.41,16.25l.05,2.47a27.85,27.85,0,0,1-2.68,12.43,19.77,19.77,0,0,1-7.64,8.47,21.83,21.83,0,0,1-11.49,3q-10,0-15.93-6.63t-6-17.66Zm10.56.91q0,7.26,3,11.37a9.77,9.77,0,0,0,8.35,4.1,9.65,9.65,0,0,0,8.32-4.17q3-4.17,3-12.21,0-7.12-3.06-11.29a10.31,10.31,0,0,0-16.53-.07Q401.24,141,401.24,149.11Z"/><path class="c" d="M482,157.59l7.47-32.46h10.3l-12.82,47h-8.69l-10.08-32.28-9.9,32.28h-8.69l-12.86-47h10.3l7.6,32.11,9.64-32.11h7.95Z"/></svg>